<svg width="580" height="400" xmlns="http://www.w3.org/2000/svg" style="vector-effect: non-scaling-stroke;" stroke="null">
 <!-- Created with Method Draw - http://github.com/duopixel/Method-Draw/ -->

 <g stroke="null">
  <title stroke="null">Layer 1</title>
  <path stroke="null" opacity="0.65" id="svg_38" d="m476.580455,202.870785c17.841471,-5.172895 34.904834,-11.136562 49.936461,-16.489934l-450.400243,-2.456438l-61.779385,21.154589l-195.718444,-1.816923c24.523759,-9.631424 51.388638,-20.945753 71.306574,-29.443932l-70.851762,-28.569099l208.827195,0l42.489715,17.850174l459.847617,0l-57.040536,-17.810224c17.603478,-5.612679 43.655628,-13.10291 57.788002,-17.030148l154.654418,45.3926l-155.006178,46.096766l-54.053491,-16.87744l0.000058,0.000009z" stroke-opacity="null" stroke-width="null" fill="#ffffff"/>
  <g stroke="null" id="svg_28">
   <g stroke="null" transform="matrix(0.5668319652615171,0,0,1.5014542762417022,-6592.872698163739,-12284.079814877563) " id="svg_26">
    <title stroke="null" transform="translate(-2.7640929222106934,-9.094947017729282e-13) translate(-2.7640929222106934,-9.094947017729282e-13) translate(-8.618598937988281,3.2291409969329834) translate(-11.004146575927734,20.42938804626465) translate(41.018211364746094,32.6870231628418) translate(357.283935546875,-16.597993850708008) translate(226.39129638671875,0) translate(-509.02728271484375,8.519643783569336) translate(11523.3291015625,0) translate(0,8130.2587890625) ">background</title>
    <rect stroke="null" x="11612.844331" y="8177.525991" width="582" height="402" id="svg_24" fill="none"/>
   </g>
   <g stroke="null" transform="matrix(0.5668319652615171,0,0,1.5014542762417022,-6592.872698163739,-12284.079814877563) " id="svg_27">
    <title stroke="null" transform="translate(-2.7640929222106934,-9.094947017729282e-13) translate(-2.7640929222106934,-9.094947017729282e-13) translate(-8.618598937988281,3.2291409969329834) translate(-11.004146575927734,20.42938804626465) translate(41.018211364746094,32.6870231628418) translate(357.283935546875,-16.597993850708008) translate(226.39129638671875,0) translate(-509.02728271484375,8.519643783569336) translate(11523.3291015625,0) translate(0,8130.2587890625) ">Layer 1</title>
    <path stroke="null" d="m11200.911261,8298.813731l0,141.89605c-14.88002,1.52254 -28.455,3.5532 -42.55258,5.58388l0,-259.93129l39.68264,0l54.29992,147.48275l0,-147.48275l42.03096,0l-93.46094,112.45136zm175.69617,-17.26163c16.187,0 40.98769,-0.76173 55.86771,-0.76173l0,40.61338c-18.53627,0 -40.20331,0 -55.86771,0.76173l0,60.41476c24.54083,-1.52253 49.0807,-3.55508 73.88043,-4.31681l0,39.08896l-115.65154,8.8863l0,-239.87632l115.65153,0l0,40.61433l-73.88042,0l0,54.57541l0,-0.00001zm229.21267,-54.57447l-43.336,0l0,186.82532c-14.09758,0 -28.19515,0 -41.7682,0.50626l0,-187.33158l-43.336,0l0,-40.61526l128.44213,0l-0.00193,40.61526zm67.87587,51.78301l57.17372,0l0,40.61338l-57.17372,0l0,92.14466l-40.98962,0l0,-225.15631l116.69866,0l0,40.61432l-75.70904,0l0,51.78395zm143.5849,97.21946c23.75743,0.50625 47.77373,2.28614 71.00953,3.5532l0,40.10712c-37.33144,-2.28615 -74.66385,-4.5676 -112.7787,-5.33121l0,-227.94684l41.76917,0l0,189.61773zm120.99425,47.62922c13.31417,0.76269 12.67,0.34791 26.24498,1.86857l0,-239.11552l-40.98673,0l0,236.07045l14.74175,1.1765zm223.99346,-236.07045l-52.99681,123.62004l52.99681,136.31125c-15.66537,-2.03067 -31.32881,-4.82308 -46.99321,-7.36189l-30.02087,-75.13475l-30.54154,69.04463c-15.1447,-2.54069 -29.76391,-3.30243 -44.90282,-5.33309l53.77829,-119.05056l-48.55907,-122.09563l44.90089,0l27.41174,68.2829l29.24035,-68.2829l45.68624,0z" fill="#d81f26" id="svg_23"/>
    <g stroke="null" id="svg_21">
     <path stroke="null" d="m12313.412519,8429.587691c-15.13334,2.54101 -30.53292,3.30284 -46.463,5.33189l-48.58898,-136.07407l0,141.91416c-15.13334,1.52273 -28.93941,3.55366 -43.27698,5.58459l0,-259.96446l40.35819,0l55.2243,147.50157l0,-147.50157l42.74647,0l0,243.20789zm83.63517,-148.00601c16.46256,0 41.68544,-0.76184 56.81878,-0.76184l0,40.61857c-18.85183,0 -40.88772,0 -56.81878,0.76183l0,60.42247c24.95861,-1.52273 49.91623,-3.55554 75.13813,-4.31737l0,39.09396l-117.62033,8.88743l0,-239.90693l117.62033,0l0,40.6195l-75.13813,0l0,54.58238zm233.11469,-54.58144l-44.07373,0l0,186.84916c-14.33757,0 -28.67514,0 -42.47925,0.50633l0,-187.35549l-44.07373,0l0,-40.62044l130.62868,0l-0.00197,40.62044zm69.03136,51.78962l58.14703,0l0,40.61856l-58.14703,0l0,92.15643l-41.68741,0l0,-225.18505l118.68529,0l0,40.61951l-76.99788,0l0,51.79055zm146.02924,97.23186c24.16186,0.50632 48.58701,2.28644 72.21836,3.55366l0,40.11224c-37.96696,-2.28644 -75.93489,-4.56818 -114.69859,-5.33189l0,-227.97593l42.48023,0l0,189.64192zm108.0613,46.45866c13.54082,0.76277 27.87839,1.5246 41.68447,3.04545l0,-239.14603l-41.68447,0l0,236.10058zm227.80663,-236.10058l-53.899,123.63581l53.899,136.32865c-15.93205,-2.03093 -31.86214,-4.82369 -47.79321,-7.36282l-30.53193,-75.14435l-31.06146,69.05344c-15.40252,-2.54101 -30.2706,-3.30284 -45.66723,-5.33377l54.69379,-119.06575l-49.38572,-122.11121l45.66526,0l27.87839,68.29161l29.73813,-68.29161l46.46398,0z" fill="#d81f26" id="svg_22"/>
    </g>
   </g>
  </g>
 </g>
</svg>