<svg width="580" height="400" xmlns="http://www.w3.org/2000/svg" style="vector-effect: non-scaling-stroke;" stroke="null">
 <!-- Created with Method Draw - http://github.com/duopixel/Method-Draw/ -->

 <g stroke="null">
  <title stroke="null">Layer 1</title>
  <g stroke="null" id="svg_28">
   <g stroke="null" transform="matrix(0.5668319652615171,0,0,0.7499020047864156,-6592.872698163739,-6104.199398174472) " id="svg_26">
    <title stroke="null" transform="translate(-2.7640929222106934,-9.094947017729282e-13) translate(-2.7640929222106934,-9.094947017729282e-13) translate(-8.618598937988281,3.2291409969329834) translate(-11.004146575927734,20.42938804626465) translate(41.018211364746094,32.6870231628418) translate(357.283935546875,-16.597993850708008) translate(226.39129638671875,0) translate(-509.02728271484375,8.519643783569336) translate(11523.3291015625,0) translate(0,8130.2587890625) ">background</title>
    <rect stroke="null" x="11612.844331" y="8177.525991" width="582" height="402" id="svg_24" fill="none"/>
   </g>
   <g stroke="null" transform="matrix(0.5668319652615171,0,0,0.7499020047864156,-6592.872698163739,-6104.199398174472) " id="svg_27">
    <title stroke="null" transform="translate(-2.7640929222106934,-9.094947017729282e-13) translate(-2.7640929222106934,-9.094947017729282e-13) translate(-8.618598937988281,3.2291409969329834) translate(-11.004146575927734,20.42938804626465) translate(41.018211364746094,32.6870231628418) translate(357.283935546875,-16.597993850708008) translate(226.39129638671875,0) translate(-509.02728271484375,8.519643783569336) translate(11523.3291015625,0) translate(0,8130.2587890625) ">Layer 1</title>
    <path stroke="null" d="m11200.911261,8298.813731l0,141.89605c-14.88002,1.52254 -28.455,3.5532 -42.55258,5.58388l0,-259.93129l39.68264,0l54.29992,147.48275l0,-147.48275l42.03096,0l-93.46094,112.45136zm175.69617,-17.26163c16.187,0 40.98769,-0.76173 55.86771,-0.76173l0,40.61338c-18.53627,0 -40.20331,0 -55.86771,0.76173l0,60.41476c24.54083,-1.52253 49.0807,-3.55508 73.88043,-4.31681l0,39.08896l-115.65154,8.8863l0,-239.87632l115.65153,0l0,40.61433l-73.88042,0l0,54.57541l0,-0.00001zm229.21267,-54.57447l-43.336,0l0,186.82532c-14.09758,0 -28.19515,0 -41.7682,0.50626l0,-187.33158l-43.336,0l0,-40.61526l128.44213,0l-0.00193,40.61526zm67.87587,51.78301l57.17372,0l0,40.61338l-57.17372,0l0,92.14466l-40.98962,0l0,-225.15631l116.69866,0l0,40.61432l-75.70904,0l0,51.78395zm143.5849,97.21946c23.75743,0.50625 47.77373,2.28614 71.00953,3.5532l0,40.10712c-37.33144,-2.28615 -74.66385,-4.5676 -112.7787,-5.33121l0,-227.94684l41.76917,0l0,189.61773zm120.99425,47.62922c13.31417,0.76269 12.67,0.34791 26.24498,1.86857l0,-239.11552l-40.98673,0l0,236.07045l14.74175,1.1765zm223.99346,-236.07045l-52.99681,123.62004l52.99681,136.31125c-15.66537,-2.03067 -31.32881,-4.82308 -46.99321,-7.36189l-30.02087,-75.13475l-30.54154,69.04463c-15.1447,-2.54069 -29.76391,-3.30243 -44.90282,-5.33309l53.77829,-119.05056l-48.55907,-122.09563l44.90089,0l27.41174,68.2829l29.24035,-68.2829l45.68624,0z" fill="#d81f26" id="svg_23"/>
    <g stroke="null" id="svg_21">
     <path stroke="null" d="m12313.412519,8429.587691c-15.13334,2.54101 -30.53292,3.30284 -46.463,5.33189l-48.58898,-136.07407l0,141.91416c-15.13334,1.52273 -28.93941,3.55366 -43.27698,5.58459l0,-259.96446l40.35819,0l55.2243,147.50157l0,-147.50157l42.74647,0l0,243.20789zm83.63517,-148.00601c16.46256,0 41.68544,-0.76184 56.81878,-0.76184l0,40.61857c-18.85183,0 -40.88772,0 -56.81878,0.76183l0,60.42247c24.95861,-1.52273 49.91623,-3.55554 75.13813,-4.31737l0,39.09396l-117.62033,8.88743l0,-239.90693l117.62033,0l0,40.6195l-75.13813,0l0,54.58238zm233.11469,-54.58144l-44.07373,0l0,186.84916c-14.33757,0 -28.67514,0 -42.47925,0.50633l0,-187.35549l-44.07373,0l0,-40.62044l130.62868,0l-0.00197,40.62044zm69.03136,51.78962l58.14703,0l0,40.61856l-58.14703,0l0,92.15643l-41.68741,0l0,-225.18505l118.68529,0l0,40.61951l-76.99788,0l0,51.79055zm146.02924,97.23186c24.16186,0.50632 48.58701,2.28644 72.21836,3.55366l0,40.11224c-37.96696,-2.28644 -75.93489,-4.56818 -114.69859,-5.33189l0,-227.97593l42.48023,0l0,189.64192zm108.0613,46.45866c13.54082,0.76277 27.87839,1.5246 41.68447,3.04545l0,-239.14603l-41.68447,0l0,236.10058zm227.80663,-236.10058l-53.899,123.63581l53.899,136.32865c-15.93205,-2.03093 -31.86214,-4.82369 -47.79321,-7.36282l-30.53193,-75.14435l-31.06146,69.05344c-15.40252,-2.54101 -30.2706,-3.30284 -45.66723,-5.33377l54.69379,-119.06575l-49.38572,-122.11121l45.66526,0l27.87839,68.29161l29.73813,-68.29161l46.46398,0z" fill="#d81f26" id="svg_22"/>
    </g>
   </g>
  </g>
  <path opacity="0.34" id="svg_29" d="m435.852465,225.800911c6.22487,-10.842453 11.059217,-22.393489 14.230132,-34.484398c12.384763,-41.176576 8.655039,-77.089388 8.655039,-77.089388l-4.249546,23.66444c0,0 -6.094915,-43.819705 -13.567358,-60.207105c-11.449083,-25.092855 -16.54334,-24.90165 -16.556336,-24.85666c7.04359,15.510106 6.419804,24.395518 6.276853,25.733954c-0.129956,-0.179958 -0.246916,-0.359915 -0.35088,-0.528626c-1.702418,-3.644144 -10.357457,-20.458943 -28.915108,-32.369895c-32.514876,-27.904694 -77.232578,-45.146893 -126.641675,-45.15814c-52.709967,0 -100.130744,19.626639 -133.048483,50.894293c-4.158577,-5.207527 -7.550417,-11.528541 -7.86231,-18.51315c0,0 -0.025991,0.022495 -0.077973,0.056237c0,-0.123721 -0.038987,-0.236195 -0.038987,-0.348668c0,0 -20.922842,14.025455 -18.661616,51.872813c-3.885671,6.455983 -7.27751,13.181903 -10.097546,20.144017c-4.873333,9.189091 -9.746666,22.539704 -13.762292,42.132601c0,0 1.728409,-4.746385 5.185226,-11.112389c-0.831715,5.421226 -1.338542,10.921184 -1.507484,16.499873c-1.1696,9.504017 -1.533475,20.976322 -0.506827,34.73184c0,0 0.415858,-4.566427 1.767395,-11.483552c10.838292,77.089388 86.641359,136.824104 178.5979,136.824104l0,0c24.171731,0 47.251835,-4.161522 68.304632,-11.652262c47.836635,-15.116449 76.140951,-44.078394 92.827243,-74.749938zm-161.11888,-214.970744c31.787125,0 61.468971,7.648203 86.810301,20.920085c-29.55189,-5.938605 -44.613737,-2.93556 -44.483782,-2.789345c0.168942,0.16871 43.976955,6.624694 51.735301,15.870021c0,0 -18.596638,0 -37.115302,4.611417c-0.844711,0.2137 68.122695,7.456998 82.222871,67.101735c0,0 -7.563412,-13.643045 -16.907216,-15.971248c6.146897,16.184947 4.561439,46.901481 -1.299555,62.175392c-0.753742,1.95704 -1.533475,-8.491755 -13.047536,-12.990698c3.690737,22.910867 -0.23392,59.251079 -18.609633,69.261228c-1.416515,0.787315 11.527056,-35.867823 2.612106,-21.7074c-53.190803,70.588416 -116.427169,28.557041 -142.093388,13.586808c20.597953,4.363975 42.456475,1.214715 55.12714,-6.287273c12.761634,-7.558224 20.325047,-13.069429 27.121721,-11.775983c6.783679,1.315941 11.306132,-4.577675 6.029937,-9.807696c-5.263199,-5.241269 -18.089811,-12.42833 -35.412885,-8.51425c-12.215821,2.778097 -27.381632,14.475349 -50.500723,2.620634c-19.727251,-10.111374 -19.5843,-18.333193 -19.5843,-23.563214c0,-4.116533 3.339857,-9.897675 9.538737,-11.562284c7.537421,0.697336 13.567358,2.406935 19.974167,5.241269c0.064978,-1.518393 0.077973,-3.542918 -0.012996,-5.837379c0.506827,-0.866047 0.194933,-3.497928 -0.610791,-6.703425c-0.46784,-3.227992 -1.260569,-6.545962 -2.469155,-9.571501c0.129956,-0.022495 0.220924,-0.078732 0.272907,-0.236195c0.987662,-3.869091 27.901455,-17.36592 29.876779,-18.659366c1.98832,-1.282199 7.147555,-4.251501 6.57575,-13.305624c-0.194933,-2.98055 -0.753742,-3.306723 -29.006077,-3.216744c-11.916923,0.033742 -18.518665,-10.055138 -20.649935,-14.00296c2.885013,-13.845497 11.215163,-23.731924 24.938468,-30.412855c0.259911,-0.123721 0.194933,-0.236195 -0.103964,-0.303679c2.846026,-1.428414 -32.800779,-0.067484 -48.863283,18.040761c-4.301528,0.528626 -10.214506,-0.539873 -16.829243,-0.539873c-8.291164,0 -14.801936,0.787315 -20.831873,2.103256c-0.649778,0.146216 -1.585458,0.123721 -2.703075,-0.011247c-1.689422,-1.079746 -4.21056,-2.879324 -6.939626,-5.218774c2.092284,-2.024524 4.21056,-4.004059 6.432799,-5.91611c30.422592,-26.341311 72.385236,-42.616238 118.805356,-42.627485z" fill-opacity="null" stroke-opacity="null" stroke-width="null" stroke="null" fill="#d81f26"/>
 </g>
</svg>