<svg width="1024" height="276.742" xmlns="http://www.w3.org/2000/svg" style="vector-effect: non-scaling-stroke;" stroke="null" class="logo-svg">

 <g stroke="null">
  <title stroke="null">background</title>
  <rect stroke="null" fill="none" id="canvas_background" height="402" width="582" y="-1" x="-1"/>
 </g>
 <g stroke="null">
  <title stroke="null">Layer 1</title>
  <path stroke="null" id="svg_1" fill="#d81f26" d="m-412.933066,120.287738l0,141.896056c-14.880026,1.522536 -28.455007,3.553201 -42.552586,5.583874l0,-259.931285l39.682645,0l54.299922,147.482749l0,-147.482749l42.030952,0l-93.460934,112.451355zm175.696163,-17.261624c16.187002,0 40.987689,-0.761737 55.867715,-0.761737l0,40.613386c-18.536277,0 -40.20331,0 -55.867715,0.761727l0,60.414757c24.540837,-1.522527 49.080707,-3.555074 73.880428,-4.316811l0,39.088967l-115.651531,8.886295l0,-239.876314l115.651531,0l0,40.614322l-73.880428,0l0,54.575409zm229.212672,-54.574472l-43.335998,0l0,186.825316c-14.097578,0 -28.195156,0 -41.768204,0.506263l0,-187.331579l-43.335999,0l0,-40.615259l128.442132,0l-0.001931,40.615259zm67.875868,51.783007l57.173726,0l0,40.613377l-57.173726,0l0,92.144667l-40.989621,0l0,-225.156311l116.698659,0l0,40.614322l-75.709038,0l0,51.783945zm143.584906,97.219459c23.757424,0.506254 47.773731,2.286146 71.009523,3.553201l0,40.107122c-37.331438,-2.286147 -74.663843,-4.567601 -112.778695,-5.331211l0,-227.946838l41.769172,0l0,189.617726zm120.994249,47.629225c13.314165,0.762683 12.669995,0.347908 26.244975,1.868563l0,-239.115514l-40.986723,0l0,236.070449zm223.993459,-236.070449l-52.99681,123.620032l52.99681,136.311253c-15.665372,-2.030673 -31.328811,-4.823074 -46.993216,-7.361885l-30.020867,-75.134751l-30.541533,69.044622c-15.144705,-2.540683 -29.763914,-3.302421 -44.902824,-5.333084l53.778292,-119.050566l-48.559077,-122.095621l44.900893,0l27.411743,68.282895l29.240352,-68.282895l45.686239,0z"/>
  <g stroke="null" id="svg_17">
   <path stroke="null" id="svg_16" fill="#d81f26" d="m698.897057,251.126155c-15.133337,2.531234 -30.532913,3.290137 -46.463,5.311381l-48.588976,-135.550637l0,141.368265c-15.133337,1.516869 -28.939413,3.539985 -43.276982,5.563101l0,-258.96445l40.358186,0l55.224302,146.934173l0,-146.934173l42.746471,0l0,242.27234zm83.635168,-147.436677c16.462564,0 41.685447,-0.758902 56.818784,-0.758902l0,40.462318c-18.851831,0 -40.887715,0 -56.818784,0.758902l0,60.190037c24.95861,-1.516869 49.916238,-3.541856 75.138139,-4.300759l0,38.943577l-117.620336,8.853238l0,-238.984075l117.620336,0l0,40.463254l-75.138139,0l0,54.372409zm233.114696,-54.371474l-44.073732,0l0,186.130406c-14.33757,0 -28.675139,0 -42.47925,0.504375l0,-186.634781l-44.073732,0l0,-40.464189l130.628679,0l-0.001965,40.464189zm69.03136,51.590391l58.147028,0l0,40.462318l-58.147028,0l0,91.801925l-41.687412,0l0,-224.318824l118.685289,0l0,40.463254l-76.997877,0l0,51.591327zm146.029237,96.857843c24.16186,0.504375 48.587011,2.277643 72.21836,3.539985l0,39.957943c-37.966953,-2.277643 -75.934889,-4.550607 -114.698592,-5.311381l0,-227.098971l42.480232,0l0,188.912424zm108.061302,46.279946c13.54082,0.759838 27.878389,1.518741 41.684465,3.033738l0,-238.226108l-41.684465,0l0,235.19237zm227.806632,-235.19237l-53.899005,123.160222l53.899005,135.804228c-15.932052,-2.023116 -31.862139,-4.805134 -47.793209,-7.334497l-30.53193,-74.855288l-31.061459,68.787812c-15.402523,-2.531234 -30.270604,-3.290137 -45.667232,-5.313253l54.69379,-118.607743l-49.385726,-121.641481l45.665267,0l27.878389,68.02891l29.738128,-68.02891l46.463982,0z"/>
  </g>
 </g>
</svg>